<svg xmlns="http://www.w3.org/2000/svg" id="mainLogo" viewBox="0.00 0.00 300.00 300.00 " width="200" height="200">
  <defs />
  <path data-refid="title" fill="#000000" d="M 6.89-31.95L 10.1-32.75Q 10.37-32.01  10.76-30.54Q 11.15-29.06  11.62-27.13Q 12.09-25.2  12.61-22.93Q 13.13-20.66  13.64-18.32Q 14.16-15.98  14.66-13.69Q 15.16-11.41  15.59-9.45Q 16.02-7.5  16.36-5.99Q 16.7-4.47  16.89-3.67L 16.89-3.67Q 17.32-4.77  17.9-6.37Q 18.48-7.97  19.15-9.87Q 19.82-11.78  20.56-13.92Q 21.29-16.05  22.04-18.23Q 22.79-20.41  23.55-22.54Q 24.32-24.67  25.02-26.57Q 25.72-28.48  26.36-30.07Q 26.99-31.66  27.5-32.75L 27.5-32.75L 29.1-32.56Q 28.75-31.33  28.4-29.7Q 28.05-28.07  27.72-26.16Q 27.4-24.26  27.11-22.16Q 26.82-20.06  26.6-17.93Q 26.39-15.8  26.26-13.71Q 26.13-11.62  26.13-9.73L 26.13-9.73Q 26.13-6.04  26.66-4.12Q 27.19-2.21  28.3-2.21L 28.3-2.21Q 28.79-2.21  29.25-2.6Q 29.71-2.99  30.22-3.77Q 30.74-4.55  31.34-5.71Q 31.93-6.88  32.7-8.4L 32.7-8.4L 32.89-8.81L 33.69-8.2L 33.5-7.79Q 32.52-5.84  31.75-4.38Q 30.98-2.93  30.26-1.95Q 29.55-0.98  28.84-0.49Q 28.13 0  27.29 0L 27.29 0Q 26.11 0  25.33-0.58Q 24.55-1.15  24.07-2.22Q 23.59-3.28  23.39-4.8Q 23.18-6.33  23.18-8.24L 23.18-8.24Q 23.18-10.33  23.4-12.63Q 23.61-14.92  23.92-17.09Q 24.22-19.26  24.54-21.1Q 24.86-22.95  25.1-24.16L 25.1-24.16L 16.29 1L 14.69 0.61Q 14.69 0.2  14.43-1.14Q 14.18-2.48  13.77-4.38Q 13.36-6.29  12.84-8.58Q 12.32-10.88  11.78-13.2L 11.78-13.2Q 10.51-18.67  8.89-25.35L 8.89-25.35Q 8.95-23.95  9.02-22.52L 9.02-22.52Q 9.08-21.29  9.13-19.89Q 9.18-18.5  9.18-17.29L 9.18-17.29Q 9.18-13.75  8.78-11.02Q 8.38-8.28  7.7-6.26Q 7.01-4.24  6.09-2.85Q 5.18-1.46  4.14-0.63Q 3.11 0.21  2.02 0.59Q 0.94 0.96-0.1 0.96L-0.1 0.96Q-1.13 0.96-2.04 0.62Q-2.95 0.27-3.62-0.34Q-4.3-0.96-4.7-1.79Q-5.1-2.62-5.1-3.59L-5.1-3.59Q-5.1-4.75-4.72-5.8Q-4.34-6.86-3.66-7.78Q-2.99-8.71-2.07-9.51Q-1.15-10.31-0.1-11L-0.1-11L 0.49-10.39Q-0.25-9.86-0.88-9.21Q-1.5-8.55-1.95-7.8Q-2.4-7.05-2.66-6.24Q-2.91-5.43-2.91-4.61L-2.91-4.61Q-2.91-3.85-2.67-3.18Q-2.42-2.52-1.96-2.01Q-1.5-1.5-0.87-1.21Q-0.23-0.92  0.57-0.92L 0.57-0.92Q 1.39-0.92  2.27-1.26Q 3.14-1.6  3.97-2.39Q 4.8-3.18  5.56-4.48Q 6.31-5.78  6.87-7.69Q 7.42-9.59  7.75-12.15Q 8.09-14.71  8.09-18.05L 8.09-18.05Q 8.09-19  8.04-20.29Q 7.99-21.58  7.9-22.99Q 7.81-24.39  7.7-25.81Q 7.58-27.23  7.45-28.45Q 7.32-29.67  7.18-30.6Q 7.03-31.52  6.89-31.95L 6.89-31.95ZM 44.730625-4.84L 44.730625-4.84Q 44.730625-3.73  44.920625-2.97Q 45.120625000000004-2.21  45.600625-2.21L 45.600625-2.21Q 45.900625-2.21  46.240625-2.49Q 46.580625-2.77  47.030625-3.42Q 47.480625-4.06  48.060625-5.09Q 48.630625-6.11  49.370625000000004-7.6L 49.370625000000004-7.6L 49.960625-8.81L 50.760625000000005-8.2L 50.180625-6.99Q 49.350625-5.35  48.640625-4.05Q 47.930625-2.75  47.280625-1.86Q 46.640625-0.96  46.020625-0.48Q 45.410624999999996 0  44.800625 0L 44.800625 0Q 44.160624999999996 0  43.720625-0.35Q 43.280625-0.7  42.990625-1.32Q 42.690625-1.93  42.540625-2.74Q 42.380625-3.55  42.320625-4.47L 42.320625-4.47Q 41.850625-3.54  41.290625-2.72Q 40.720625-1.91  40.110625-1.31Q 39.490625-0.7  38.830625-0.35Q 38.160624999999996 0  37.500625 0L 37.500625 0Q 36.520625 0  35.600625-0.41Q 34.690625-0.82  33.970625-1.66Q 33.260625-2.5 32.830625-3.78Q 32.400625-5.06 32.400625-6.8L 32.400625-6.8Q 32.400625-8.83  32.930625-10.52Q 33.460625-12.21  34.350625-13.43Q 35.250625-14.65  36.430625-15.32Q 37.600625-16  38.890625-16L 38.890625-16Q 39.670625-16  40.330625-15.64Q 41.000625-15.29  41.490625-14.79Q 41.990625-14.3  42.320625-13.74Q 42.660624999999996-13.18  42.770625-12.79L 42.770625-12.79L 43.010625-14.69Q 43.050625-15.06  43.370625000000004-15.31Q 43.690625-15.57  44.080625-15.71Q 44.470625-15.86  44.840625-15.93Q 45.210625-16  45.370625000000004-16L 45.370625000000004-16Q 45.600625-16  45.680625-15.92Q 45.760625-15.84  45.760625-15.61L 45.760625-15.61Q 45.760625-15.31  45.600625-14.42Q 45.430625-13.54  45.240625-12.16Q 45.060625-10.78  44.890625-8.93Q 44.730625-7.07  44.730625-4.84ZM 42.580625-10L 42.580625-10Q 42.580625-10.9  42.300625-11.77Q 42.030625-12.64  41.560625-13.31Q 41.090625-13.98  40.480625-14.39Q 39.860625-14.8  39.180625-14.8L 39.180625-14.8Q 38.340625-14.8  37.610625-14.33Q 36.870625-13.85  36.340625-12.98Q 35.800625-12.11  35.490625-10.89Q 35.180625-9.67  35.180625-8.2L 35.180625-8.2Q 35.180625-5.27  36.090625-3.74Q 37.010625-2.21  38.530625-2.21L 38.530625-2.21Q 39.200625-2.21  39.910624999999996-2.74Q 40.620625000000004-3.28  41.220625-4.29Q 41.820625-5.29  42.200625-6.74Q 42.580625-8.18  42.580625-10ZM 50.57093749999999-7.79L 49.76093749999999-8.4L 49.96093749999999-8.81Q 50.25093749999999-9.39  50.50093749999999-10.02Q 50.740937499999994-10.64  50.920937499999994-11.2Q 51.090937499999995-11.76  51.19093749999999-12.2Q 51.29093749999999-12.64  51.33093749999999-12.87L 51.33093749999999-12.87Q 50.82093749999999-12.93  50.35093749999999-13.13Q 49.880937499999995-13.32 49.53093749999999-13.65Q 49.18093749999999-13.98 48.97093749999999-14.43Q 48.770937499999995-14.88 48.770937499999995-15.45L 48.770937499999995-15.45Q 48.770937499999995-15.9 48.920937499999994-16.25Q 49.08093749999999-16.6 49.340937499999995-16.84Q 49.61093749999999-17.07 49.93093749999999-17.2Q 50.25093749999999-17.32  50.60093749999999-17.32L 50.60093749999999-17.32Q 51.07093749999999-17.32  51.420937499999994-17.13Q 51.78093749999999-16.93  52.01093749999999-16.61Q 52.25093749999999-16.29  52.36093749999999-15.87Q 52.480937499999996-15.45  52.480937499999996-15L 52.480937499999996-15Q 53.03093749999999-15  53.660937499999996-15.16Q 54.30093749999999-15.31  54.94093749999999-15.5Q 55.590937499999995-15.68  56.21093749999999-15.84Q 56.840937499999995-16  57.36093749999999-16L 57.36093749999999-16Q 57.810937499999994-16  58.090937499999995-15.81Q 58.36093749999999-15.63  58.36093749999999-15.2L 58.36093749999999-15.2Q 58.36093749999999-14.88  58.170937499999994-14.16Q 57.990937499999994-13.44  57.71093749999999-12.48Q 57.44093749999999-11.52  57.1209375-10.4Q 56.80093749999999-9.28  56.520937499999995-8.13Q 56.25093749999999-6.99  56.060937499999994-5.92Q 55.880937499999995-4.84  55.880937499999995-4L 55.880937499999995-4Q 55.880937499999995-2.95  56.11093749999999-2.58Q 56.35093749999999-2.21  56.950937499999995-2.21L 56.950937499999995-2.21Q 57.21093749999999-2.21  57.590937499999995-2.43Q 57.97093749999999-2.66  58.5109375-3.31Q 59.060937499999994-3.96  59.810937499999994-5.19Q 60.57093749999999-6.41  61.560937499999994-8.4L 61.560937499999994-8.4L 61.7609375-8.81L 62.560937499999994-8.2L 62.36093749999999-7.79Q 61.19093749999999-5.45  60.270937499999995-3.95Q 59.35093749999999-2.44  58.58093749999999-1.56Q 57.810937499999994-0.68  57.130937499999995-0.34Q 56.44093749999999 0  55.76093749999999 0L 55.76093749999999 0Q 54.61093749999999 0  53.89093749999999-0.88Q 53.160937499999996-1.76  53.160937499999996-3.59L 53.160937499999996-3.59Q 53.160937499999996-4.59  53.44093749999999-5.66Q 53.71093749999999-6.74  54.1209375-7.8Q 54.53093749999999-8.87  55.04093749999999-9.9Q 55.55093749999999-10.94  56.00093749999999-11.87Q 56.46093749999999-12.79  56.840937499999995-13.59Q 57.21093749999999-14.39  57.36093749999999-15L 57.36093749999999-15L 57.25093749999999-15.12Q 56.93093749999999-15.12  56.410937499999996-14.79Q 55.880937499999995-14.45  55.22093749999999-14.03Q 54.57093749999999-13.61  53.83093749999999-13.24Q 53.090937499999995-12.87  52.32093749999999-12.79L 52.32093749999999-12.79Q 52.28093749999999-12.52  52.160937499999996-11.99Q 52.03093749999999-11.46  51.82093749999999-10.82Q 51.60093749999999-10.18  51.33093749999999-9.49Q 51.050937499999996-8.81  50.76093749999999-8.2L 50.76093749999999-8.2L 50.57093749999999-7.79ZM 50.72093749999999-16.23L 50.72093749999999-16.23Q 50.550937499999996-16.23  50.43093749999999-16.11Q 50.310937499999994-16  50.310937499999994-15.84L 50.310937499999994-15.84Q 50.310937499999994-15.61  50.43093749999999-15.44Q 50.550937499999996-15.27  50.72093749999999-15.17Q 50.90093749999999-15.06  51.08093749999999-15.01Q 51.270937499999995-14.96  51.410937499999996-14.96L 51.410937499999996-14.96Q 51.410937499999996-15.51  51.230937499999996-15.87Q 51.050937499999996-16.23  50.72093749999999-16.23ZM 73.1678125-6.8L 73.1678125-6.8Q 73.1678125-5.47  72.7678125-4.25Q 72.3678125-3.03  71.5878125-2.08Q 70.8178125-1.13  69.6778125-0.57Q 68.5378125 0  67.0678125 0L 67.0678125 0Q 66.0178125 0  65.1878125-0.34Q 64.3578125-0.68  63.7678125-1.26Q 63.1878125-1.84  62.8678125-2.57Q 62.5578125-3.3  62.5578125-4.08L 62.5578125-4.08Q 62.5578125-4.86  62.8578125-5.54Q 63.1678125-6.21  63.6778125-6.69Q 64.1978125-7.17  64.8678125-7.44Q 65.5278125-7.71  66.2678125-7.71L 66.2678125-7.71Q 66.7378125-7.71  67.2478125-7.6L 67.2478125-7.6L 67.2478125-7.03Q 66.6178125-7.03  66.0278125-6.78Q 65.4278125-6.52  64.9678125-6.08Q 64.5078125-5.64  64.2378125-5.03Q 63.9678125-4.41  63.9678125-3.71L 63.9678125-3.71Q 63.9678125-2.42  64.8578125-1.65Q 65.7378125-0.88  67.2878125-0.88L 67.2878125-0.88Q 68.0678125-0.88  68.7078125-1.18Q 69.3578125-1.48  69.8178125-2.02Q 70.2778125-2.56  70.5178125-3.3Q 70.7578125-4.04  70.7578125-4.92L 70.7578125-4.92Q 70.7578125-5.76  70.4278125-6.48Q 70.0978125-7.21  69.5478125-7.85Q 69.0078125-8.5  68.3078125-9.06Q 67.6178125-9.63  66.9078125-10.15Q 66.1878125-10.66  65.5078125-11.15Q 64.8278125-11.64  64.3178125-12.13L 64.3178125-12.13L 62.3678125-7.79L 61.5578125-8.4L 63.5578125-12.75Q 62.8278125-13.44  62.4878125-14.05Q 62.1478125-14.67  62.1478125-15.53L 62.1478125-15.53Q 62.1478125-16  62.3178125-16.42Q 62.4778125-16.84  62.7678125-17.14Q 63.0478125-17.44  63.4178125-17.62Q 63.7878125-17.79  64.1978125-17.79L 64.1978125-17.79Q 64.9378125-17.79  65.3078125-17.37Q 65.6878125-16.95  65.6878125-16.33L 65.6878125-16.33Q 65.6878125-16.04  65.6278125-15.71Q 65.5678125-15.39  65.4778125-15.07Q 65.3878125-14.75  65.2978125-14.47Q 65.2178125-14.2  65.1578125-14L 65.1578125-14Q 65.7378125-13.55  66.5578125-13.13Q 67.3878125-12.71  68.2678125-12.27Q 69.1578125-11.82  70.0378125-11.29Q 70.9178125-10.76  71.6078125-10.12Q 72.3078125-9.47  72.7378125-8.65Q 73.1678125-7.83  73.1678125-6.8ZM 64.2378125-16.91L 64.2378125-16.91Q 63.9678125-16.91  63.7978125-16.73Q 63.6378125-16.54  63.6378125-16.23L 63.6378125-16.23Q 63.6378125-15.88  63.8078125-15.45Q 63.9878125-15.02  64.4378125-14.61L 64.4378125-14.61Q 64.6278125-15.02  64.7378125-15.41Q 64.8478125-15.8  64.8478125-16.19L 64.8478125-16.19Q 64.8478125-16.5  64.6778125-16.71Q 64.5078125-16.91  64.2378125-16.91ZM 77.365625-6.8L 77.365625-6.8Q 77.365625-5.84  77.305625-4.78Q 77.245625-3.71  77.055625-2.65Q 76.875625-1.58  76.525625-0.58Q 76.175625 0.43  75.565625 1.29L 75.565625 1.29L 74.085625 0.84Q 74.565625-0.8 74.665625-2.6Q 74.765625-4.39  74.765625-6.19L 74.765625-6.19Q 74.765625-8.14 74.635625-10.1Q 74.515625-12.05 74.345625-14.01Q 74.175625-15.98 74.055625-17.97Q 73.925625-19.96 73.925625-21.99L 73.925625-21.99Q 73.925625-23.22 74.185625-24.14Q 74.455625-25.06  74.885625-25.66Q 75.315625-26.27  75.835625-26.57Q 76.365625-26.88  76.895625-26.88L 76.895625-26.88Q 77.635625-26.88  78.075625-26.35Q 78.515625-25.82  78.725625-24.92Q 78.945625-24.02  78.955625-22.83Q 78.965625-21.64  78.845625-20.31Q 78.725625-18.98  78.515625-17.6Q 78.305625-16.21  78.045625-14.9Q 77.795625-13.59  77.545625-12.46Q 77.305625-11.33  77.125625-10.53L 77.125625-10.53Q 77.125625-10.37  77.145625-10.21Q 77.165625-10.04  77.165625-9.88L 77.165625-9.88Q 77.575625-10.8  78.175625-11.87Q 78.765625-12.93  79.525625-13.85Q 80.275625-14.77  81.165625-15.38Q 82.055625-16  83.045625-16L 83.045625-16Q 84.515625-16  85.255625-15.02Q 85.995625-14.04  85.995625-12.21L 85.995625-12.21Q 85.995625-10.94  85.855625-9.77Q 85.72562500000001-8.59  85.55562499999999-7.51Q 85.395625-6.43  85.255625-5.41Q 85.115625-4.39  85.115625-3.4L 85.115625-3.4Q 85.115625-2.21  85.72562500000001-2.21L 85.72562500000001-2.21Q 86.015625-2.21  86.47562500000001-2.72Q 86.935625-3.24  87.495625-4.1Q 88.065625-4.96  88.695625-6.07Q 89.315625-7.19  89.925625-8.4L 89.925625-8.4L 90.115625-8.81L 90.915625-8.2L 90.72562500000001-7.79Q 90.035625-6.45  89.295625-5.06Q 88.55562499999999-3.67  87.775625-2.55Q 86.995625-1.43  86.185625-0.71Q 85.375625 0  84.565625 0L 84.565625 0Q 84.215625 0  83.855625-0.12Q 83.495625-0.23  83.205625-0.53Q 82.905625-0.82  82.715625-1.32Q 82.515625-1.82  82.515625-2.6L 82.515625-2.6Q 82.515625-3.38  82.595625-4.3Q 82.675625-5.21  82.785625-6.18Q 82.895625-7.15  83.025625-8.11Q 83.165625-9.06  83.275625-9.9Q 83.375625-10.74  83.455625-11.42Q 83.535625-12.09  83.535625-12.52L 83.535625-12.52Q 83.535625-13.63  83.22562500000001-14.14Q 82.905625-14.65  82.285625-14.65L 82.285625-14.65Q 81.505625-14.65  80.785625-13.96Q 80.055625-13.28  79.425625-12.26Q 78.785625-11.23  78.265625-10.05Q 77.735625-8.87  77.325625-7.87L 77.325625-7.87Q 77.325625-7.58  77.345625-7.29Q 77.365625-7.01  77.365625-6.8ZM 76.095625-23.52L 76.095625-23.52Q 76.095625-22.71  76.165625-21.57Q 76.225625-20.43  76.335625-19.1Q 76.445625-17.77  76.575625-16.33Q 76.695625-14.88  76.835625-13.48L 76.835625-13.48Q 77.055625-14.57  77.265625-15.89Q 77.475625-17.21  77.645625-18.54Q 77.815625-19.88  77.895625-21.15Q 77.985625-22.42  77.935625-23.4Q 77.895625-24.38  77.675625-24.97Q 77.465625-25.57  77.055625-25.57L 77.055625-25.57Q 76.675625-25.57  76.385625-25.12Q 76.095625-24.67  76.095625-23.52ZM 115.19718749999998-10.12L 115.11718749999999-10.92Q 115.85718749999998-10.92  116.32718749999998-11.33Q 116.79718749999998-11.74  116.79718749999998-12.25L 116.79718749999998-12.25Q 116.79718749999998-12.5  116.64718749999999-12.75Q 116.50718749999999-13.01  116.19718749999998-13.2Q 115.89718749999999-13.4  115.39718749999999-13.52Q 114.90718749999999-13.63  114.19718749999998-13.63L 114.19718749999998-13.63Q 113.27718749999998-13.63  112.41718749999998-13.42Q 111.56718749999999-13.2  110.6871875-12.87L 110.6871875-12.87Q 111.50718749999999-12.05  111.99718749999998-10.97Q 112.47718749999999-9.88  112.47718749999999-8.48L 112.47718749999999-8.48Q 112.47718749999999-6.43  111.66718749999998-4.84Q 110.85718749999998-3.26  109.49718749999998-2.19Q 108.14718749999999-1.11  106.36718749999999-0.56Q 104.58718749999998 0  102.67718749999999 0L 102.67718749999999 0Q 100.75718749999999 0  98.94718749999998-0.57Q 97.12718749999999-1.13  95.69718749999998-2.27Q 94.25718749999999-3.4  93.38718749999998-5.12Q 92.51718749999999-6.84  92.51718749999999-9.12L 92.51718749999999-9.12Q 92.51718749999999-11.23  93.19718749999998-12.82Q 93.86718749999999-14.41  94.92718749999999-15.56Q 95.99718749999998-16.7  97.28718749999999-17.44Q 98.57718749999998-18.18  99.80718749999998-18.59L 99.80718749999998-18.59Q 99.04718749999998-18.98  98.30718749999998-19.55Q 97.57718749999998-20.12  97.00718749999999-20.82Q 96.44718749999998-21.52  96.10718749999998-22.37Q 95.75718749999999-23.22  95.75718749999999-24.2L 95.75718749999999-24.2Q 95.75718749999999-25.57  96.34718749999999-26.68Q 96.9371875-27.79  97.87718749999999-28.57Q 98.82718749999998-29.36  100.03718749999999-29.78Q 101.24718749999998-30.2  102.51718749999999-30.2L 102.51718749999999-30.2Q 104.04718749999998-30.2  105.13718749999998-29.85Q 106.22718749999999-29.51  106.91718749999998-28.97Q 107.59718749999999-28.44  107.91718749999998-27.75Q 108.24718749999998-27.07  108.24718749999998-26.41L 108.24718749999998-26.41Q 108.24718749999998-25.84  108.03718749999999-25.31Q 107.82718749999998-24.79  107.44718749999998-24.38Q 107.06718749999999-23.98  106.52718749999998-23.75Q 105.97718749999999-23.52  105.31718749999999-23.52L 105.31718749999999-23.52Q 104.80718749999998-23.52  104.39718749999999-23.7Q 103.98718749999999-23.89  103.66718749999998-24.12Q 103.35718749999998-24.36  103.16718749999998-24.59Q 102.96718749999998-24.82  102.90718749999999-24.92L 102.90718749999999-24.92L 103.55718749999998-25.31Q 103.65718749999999-25.21  103.83718749999998-25.08Q 104.02718749999998-24.94  104.25718749999999-24.81Q 104.49718749999998-24.69  104.75718749999999-24.6Q 105.01718749999999-24.51  105.31718749999999-24.51L 105.31718749999999-24.51Q 106.09718749999999-24.51  106.56718749999999-25.08Q 107.02718749999998-25.64  107.02718749999998-26.41L 107.02718749999998-26.41Q 107.02718749999998-26.86  106.82718749999998-27.31Q 106.61718749999999-27.77  106.1871875-28.15Q 105.75718749999999-28.54  105.08718749999998-28.77Q 104.41718749999998-29  103.47718749999999-29L 103.47718749999999-29Q 102.24718749999998-29  101.30718749999998-28.55Q 100.36718749999999-28.11  99.74718749999998-27.35Q 99.11718749999999-26.6  98.79718749999998-25.65Q 98.47718749999999-24.71  98.47718749999999-23.71L 98.47718749999999-23.71Q 98.47718749999999-22.97  98.65718749999999-22.27Q 98.84718749999999-21.56  99.20718749999999-20.95Q 99.56718749999999-20.33  100.12718749999999-19.83Q 100.6871875-19.34  101.44718749999998-19.04L 101.44718749999998-19.04Q 101.83718749999998-19.14  102.1871875-19.17Q 102.53718749999999-19.2  102.82718749999998-19.2L 102.82718749999998-19.2Q 103.33718749999998-19.2  103.63718749999998-19.05Q 103.92718749999999-18.91  103.92718749999999-18.63L 103.92718749999999-18.63Q 103.92718749999999-18.22  103.59718749999999-18.01Q 103.25718749999999-17.79  102.71718749999998-17.79L 102.71718749999998-17.79Q 102.38718749999998-17.79  101.99718749999998-17.85Q 101.61718749999999-17.91  101.1871875-18.05L 101.1871875-18.05Q 99.84718749999999-17.73  98.82718749999998-16.96Q 97.81718749999999-16.19  97.12718749999999-15.12Q 96.44718749999998-14.04  96.10718749999998-12.76Q 95.75718749999999-11.48  95.75718749999999-10.16L 95.75718749999999-10.16Q 95.75718749999999-8.55  96.25718749999999-6.99Q 96.75718749999999-5.43  97.77718749999998-4.2Q 98.78718749999999-2.97  100.29718749999998-2.21Q 101.79718749999998-1.45  103.82718749999998-1.45L 103.82718749999998-1.45Q 105.25718749999999-1.45  106.58718749999998-1.89Q 107.92718749999999-2.34  108.95718749999999-3.22Q 109.97718749999999-4.1  110.60718749999998-5.39Q 111.22718749999999-6.68  111.22718749999999-8.36L 111.22718749999999-8.36Q 111.22718749999999-9.71  110.77718749999998-10.73Q 110.32718749999998-11.76  109.58718749999998-12.48L 109.58718749999998-12.48Q 108.78718749999999-12.15  107.99718749999998-11.82Q 107.20718749999999-11.48  106.37718749999999-11.21Q 105.54718749999998-10.94  104.6871875-10.77Q 103.82718749999998-10.61  102.90718749999999-10.61L 102.90718749999999-10.61Q 102.20718749999999-10.61  101.6871875-10.78Q 101.16718749999998-10.96  100.82718749999998-11.24Q 100.48718749999999-11.52  100.32718749999998-11.89Q 100.15718749999999-12.27  100.15718749999999-12.68L 100.15718749999999-12.68Q 100.15718749999999-13.3  100.49718749999998-13.79Q 100.83718749999998-14.28  101.42718749999999-14.62Q 102.00718749999999-14.96  102.80718749999998-15.14Q 103.59718749999999-15.31  104.47718749999999-15.31L 104.47718749999999-15.31Q 105.40718749999999-15.31  106.41718749999998-15.11Q 107.41718749999998-14.9  108.39718749999999-14.47L 108.39718749999999-14.47Q 109.62718749999999-15.08  110.99718749999998-15.56Q 112.36718749999999-16.04  113.9671875-16.04L 113.9671875-16.04Q 115.03718749999999-16.04  115.81718749999999-15.75Q 116.59718749999999-15.47  117.11718749999999-15.02Q 117.63718749999998-14.57  117.87718749999999-14Q 118.12718749999999-13.44  118.12718749999999-12.87L 118.12718749999999-12.87Q 118.12718749999999-12.34  117.92718749999999-11.86Q 117.73718749999999-11.37  117.35718749999998-10.98Q 116.97718749999999-10.59  116.42718749999999-10.35Q 115.87718749999999-10.12  115.19718749999998-10.12L 115.19718749999998-10.12ZM 104.47718749999999-14.39L 104.47718749999999-14.39Q 103.35718749999998-14.39  102.61718749999999-14.09Q 101.87718749999999-13.79  101.87718749999999-13.28L 101.87718749999999-13.28Q 101.87718749999999-12.97  102.22718749999999-12.76Q 102.57718749999998-12.56  103.35718749999998-12.56L 103.35718749999998-12.56Q 104.25718749999999-12.56  105.22718749999999-12.95Q 106.1871875-13.34  107.28718749999999-13.89L 107.28718749999999-13.89Q 106.54718749999998-14.16  105.81718749999999-14.28Q 105.09718749999999-14.39  104.47718749999999-14.39ZM 151.2065625 0.8L 148.4165625 1.19L 148.4165625-13.93Q 144.9365625-14.08  141.7165625-14.31Q 138.4965625-14.53  135.7965625-14.73L 135.7965625-14.73L 135.7965625-10.35Q 135.7965625-7.71  135.3065625-5.77Q 134.8065625-3.83  133.7265625-2.54Q 132.6565625-1.25  130.9965625-0.63Q 129.3365625 0  127.0165625 0L 127.0165625 0Q 125.3665625 0  123.9465625-0.5Q 122.5165625-1  121.4665625-1.91Q 120.4065625-2.83  119.8165625-4.12Q 119.2165625-5.41 119.2165625-6.99L 119.2165625-6.99Q 119.2165625-8.71  119.9965625-10.34Q 120.7765625-11.97  122.2965625-13.22Q 123.8065625-14.47  126.0465625-15.23Q 128.2765625-16  131.2065625-16L 131.2065625-16L 132.8165625-16L 132.8165625-19.28Q 132.8165625-20.84  132.8765625-22.28Q 132.9465625-23.71  133.2465625-25.06Q 133.5365625-26.41  134.1365625-27.68Q 134.7465625-28.95  135.7965625-30.2L 135.7965625-30.2Q 134.7265625-29.39  133.4665625-29.12Q 132.2065625-28.85  130.8965625-28.85L 130.8965625-28.85Q 129.9965625-28.85  129.0965625-28.94Q 128.1865625-29.02  127.3065625-29.12Q 126.4265625-29.22  125.5965625-29.31Q 124.7665625-29.39  124.0065625-29.39L 124.0065625-29.39Q 123.1865625-29.39  122.5765625-29.19Q 121.9765625-28.98  121.5865625-28.62Q 121.1865625-28.26  120.9965625-27.79Q 120.7965625-27.32  120.7965625-26.8L 120.7965625-26.8Q 120.7965625-26.27  121.0565625-25.77Q 121.3065625-25.27  121.7965625-24.87Q 122.2865625-24.47  122.9965625-24.24Q 123.7065625-24  124.6065625-24L 124.6065625-24Q 125.4265625-24  126.0965625-24.16Q 126.7565625-24.32  127.2265625-24.51L 127.2265625-24.51Q 127.7765625-24.73  128.2065625-25.04L 128.2065625-25.04L 128.6165625-24.2Q 128.0865625-23.85  127.4365625-23.59L 127.4365625-23.59Q 126.8965625-23.38  126.1665625-23.19Q 125.4265625-23.01  124.6065625-23.01L 124.6065625-23.01Q 123.4765625-23.01  122.5565625-23.33Q 121.6365625-23.65  120.9865625-24.21Q 120.3365625-24.77  119.9665625-25.54Q 119.6065625-26.31 119.6065625-27.21L 119.6065625-27.21Q 119.6065625-28.26  119.9965625-29.07Q 120.3865625-29.88  121.0665625-30.45Q 121.7365625-31.02  122.6465625-31.31Q 123.5565625-31.6  124.6065625-31.6L 124.6065625-31.6Q 125.6865625-31.6  126.7365625-31.46Q 127.7965625-31.33  128.8365625-31.16Q 129.8865625-31  130.9065625-30.86Q 131.9365625-30.72  132.9265625-30.72L 132.9265625-30.72Q 133.9265625-30.72  134.8865625-30.91Q 135.8365625-31.09  136.8165625-31.6L 136.8165625-31.6L 137.6165625-31Q 137.1665625-30.41  136.8365625-29.69Q 136.5065625-28.96  136.2665625-27.93Q 136.0365625-26.89  135.9165625-25.46Q 135.7965625-24.02  135.7965625-21.99L 135.7965625-21.99L 135.7965625-16L 148.4165625-16L 148.4165625-21.6Q 148.4165625-23.5  148.5165625-24.97Q 148.6165625-26.45  148.7965625-27.61Q 148.9865625-28.77  149.2565625-29.68Q 149.5265625-30.59  149.89656250000002-31.33Q 150.2565625-32.07  150.6865625-32.71Q 151.1165625-33.36  151.6065625-34L 151.6065625-34L 152.4065625-33.4Q 152.1065625-32.79  151.8865625-32.08Q 151.6565625-31.37  151.5165625-30.24Q 151.3665625-29.12  151.2865625-27.43Q 151.2065625-25.74  151.2065625-23.2L 151.2065625-23.2L 151.2065625-16L 154.6065625-16L 154.0065625-13.81Q 153.3165625-13.81  152.6065625-13.81Q 151.89656250000002-13.81  151.2065625-13.85L 151.2065625-13.85L 151.2065625 0.8ZM 127.4065625-1L 127.4065625-1Q 128.7465625-1  129.7665625-1.37Q 130.7765625-1.74  131.4565625-2.6Q 132.1265625-3.46  132.4665625-4.86Q 132.8165625-6.27  132.8165625-8.36L 132.8165625-8.36L 132.8165625-14.92Q 132.2065625-14.96  131.6265625-14.98Q 131.0565625-15  130.6065625-15L 130.6065625-15Q 128.9065625-15  127.5965625-14.64Q 126.2865625-14.28  125.3165625-13.67Q 124.3365625-13.07  123.6665625-12.27Q 122.9865625-11.46  122.5765625-10.58Q 122.1665625-9.69  121.9965625-8.76Q 121.8165625-7.83  121.8165625-6.99L 121.8165625-6.99Q 121.8165625-5.35  122.3265625-4.21Q 122.8365625-3.07  123.6365625-2.35Q 124.4365625-1.64  125.4265625-1.32Q 126.4265625-1  127.4065625-1ZM 167.83609375-4.84L 167.83609375-4.84Q 167.83609375-3.73  168.02609375-2.97Q 168.22609375-2.21  168.70609375-2.21L 168.70609375-2.21Q 169.00609375-2.21  169.34609375-2.49Q 169.68609375-2.77  170.13609375-3.42Q 170.58609375-4.06  171.16609375-5.09Q 171.73609375-6.11  172.47609375-7.6L 172.47609375-7.6L 173.06609375-8.81L 173.86609375-8.2L 173.28609375-6.99Q 172.45609375-5.35  171.74609375-4.05Q 171.03609375-2.75  170.38609375-1.86Q 169.74609375-0.96  169.12609375-0.48Q 168.51609375 0  167.90609375 0L 167.90609375 0Q 167.26609375 0  166.82609375-0.35Q 166.38609375-0.7  166.09609375-1.32Q 165.79609375-1.93  165.64609375-2.74Q 165.48609375-3.55  165.42609375-4.47L 165.42609375-4.47Q 164.95609375-3.54  164.39609375-2.72Q 163.82609375-1.91  163.21609375-1.31Q 162.59609375-0.7  161.93609375-0.35Q 161.26609375 0  160.60609375 0L 160.60609375 0Q 159.62609375 0  158.70609375-0.41Q 157.79609375-0.82  157.07609375-1.66Q 156.36609375-2.5 155.93609375-3.78Q 155.50609375-5.06 155.50609375-6.8L 155.50609375-6.8Q 155.50609375-8.83  156.03609375-10.52Q 156.56609375-12.21  157.45609375-13.43Q 158.35609375-14.65  159.53609375-15.32Q 160.70609375-16  161.99609375-16L 161.99609375-16Q 162.77609375-16  163.43609375-15.64Q 164.10609375-15.29  164.59609375-14.79Q 165.09609375-14.3  165.42609375-13.74Q 165.76609375-13.18  165.87609375-12.79L 165.87609375-12.79L 166.11609375-14.69Q 166.15609375-15.06  166.47609375-15.31Q 166.79609375-15.57  167.18609375-15.71Q 167.57609375-15.86  167.94609375-15.93Q 168.31609375-16  168.47609375-16L 168.47609375-16Q 168.70609375-16  168.78609375-15.92Q 168.86609375-15.84  168.86609375-15.61L 168.86609375-15.61Q 168.86609375-15.31  168.70609375-14.42Q 168.53609375-13.54  168.34609375-12.16Q 168.16609375-10.78  167.99609375-8.93Q 167.83609375-7.07  167.83609375-4.84ZM 165.68609375-10L 165.68609375-10Q 165.68609375-10.9  165.40609375-11.77Q 165.13609375-12.64  164.66609375-13.31Q 164.19609375-13.98  163.58609375-14.39Q 162.96609375-14.8  162.28609375-14.8L 162.28609375-14.8Q 161.44609375-14.8  160.71609375-14.33Q 159.97609375-13.85  159.44609375-12.98Q 158.90609375-12.11  158.59609375-10.89Q 158.28609375-9.67  158.28609375-8.2L 158.28609375-8.2Q 158.28609375-5.27  159.19609375-3.74Q 160.11609375-2.21  161.63609375-2.21L 161.63609375-2.21Q 162.30609375-2.21  163.01609375-2.74Q 163.72609375-3.28  164.32609375-4.29Q 164.92609375-5.29  165.30609375-6.74Q 165.68609375-8.18  165.68609375-10ZM 177.26640625-2.48L 177.26640625-2.48Q 177.61640625-2.48  178.07640625-2.94Q 178.53640625-3.4  179.06640625-4.2Q 179.58640625-5  180.17640625-6.07Q 180.76640625-7.15  181.38640625-8.4L 181.38640625-8.4L 181.58640625-8.81L 182.38640625-8.2L 182.18640625-7.79Q 181.15640625-5.72  180.34640625-4.25Q 179.52640625-2.77  178.82640625-1.83Q 178.12640625-0.88  177.48640625-0.44Q 176.85640625 0  176.19640625 0L 176.19640625 0Q 175.31640625 0  174.67640625-0.58Q 174.04640625-1.15  173.62640625-2.51Q 173.20640625-3.87 172.99640625-6.09Q 172.79640625-8.32 172.79640625-11.6L 172.79640625-11.6Q 172.79640625-16.25  173.18640625-19.58Q 173.57640625-22.91  174.24640625-25.05Q 174.92640625-27.19  175.80640625-28.19Q 176.69640625-29.2  177.67640625-29.2L 177.67640625-29.2Q 178.26640625-29.2  178.66640625-28.72Q 179.06640625-28.24  179.06640625-26.99L 179.06640625-26.99Q 179.06640625-26.02  178.90640625-24.77Q 178.74640625-23.52  178.49640625-22.09Q 178.24640625-20.66  177.88640625-19.13Q 177.53640625-17.6  177.14640625-16.08Q 176.75640625-14.57  176.34640625-13.12Q 175.93640625-11.66  175.54640625-10.39L 175.54640625-10.39Q 175.66640625-7.99  175.80640625-6.46Q 175.95640625-4.92  176.16640625-4.04Q 176.36640625-3.16  176.63640625-2.82Q 176.91640625-2.48  177.26640625-2.48ZM 177.79640625-26.52L 177.79640625-26.52Q 177.79640625-26.93  177.69640625-27.17Q 177.59640625-27.4  177.38640625-27.4L 177.38640625-27.4Q 177.16640625-27.4  176.95640625-26.8Q 176.73640625-26.19  176.53640625-25.16Q 176.32640625-24.12  176.16640625-22.75Q 175.99640625-21.39  175.85640625-19.85Q 175.72640625-18.32  175.64640625-16.72Q 175.56640625-15.12  175.54640625-13.63L 175.54640625-13.63Q 176.01640625-15.35  176.41640625-17.16Q 176.81640625-18.96  177.12640625-20.66Q 177.44640625-22.36  177.61640625-23.88Q 177.79640625-25.39  177.79640625-26.52ZM 185.78203125-2.48L 185.78203125-2.48Q 186.13203125-2.48  186.59203125-2.94Q 187.05203125-3.4  187.58203125-4.2Q 188.10203125-5  188.69203125-6.07Q 189.28203125-7.15  189.90203125-8.4L 189.90203125-8.4L 190.10203125-8.81L 190.90203125-8.2L 190.70203125-7.79Q 189.67203125-5.72  188.86203125-4.25Q 188.04203125-2.77  187.34203125-1.83Q 186.64203125-0.88  186.00203125-0.44Q 185.37203125 0  184.71203125 0L 184.71203125 0Q 183.83203125 0  183.19203125-0.58Q 182.56203125-1.15  182.14203125-2.51Q 181.72203125-3.87 181.51203125-6.09Q 181.31203125-8.32 181.31203125-11.6L 181.31203125-11.6Q 181.31203125-16.25  181.70203125-19.58Q 182.09203125-22.91  182.76203125-25.05Q 183.44203125-27.19  184.32203125-28.19Q 185.21203125-29.2  186.19203125-29.2L 186.19203125-29.2Q 186.78203125-29.2  187.18203125-28.72Q 187.58203125-28.24  187.58203125-26.99L 187.58203125-26.99Q 187.58203125-26.02  187.42203125-24.77Q 187.26203125-23.52  187.01203125-22.09Q 186.76203125-20.66  186.40203125-19.13Q 186.05203125-17.6  185.66203125-16.08Q 185.27203125-14.57  184.86203125-13.12Q 184.45203125-11.66  184.06203125-10.39L 184.06203125-10.39Q 184.18203125-7.99  184.32203125-6.46Q 184.47203125-4.92  184.68203125-4.04Q 184.88203125-3.16  185.15203125-2.82Q 185.43203125-2.48  185.78203125-2.48ZM 186.31203125-26.52L 186.31203125-26.52Q 186.31203125-26.93  186.21203125-27.17Q 186.11203125-27.4  185.90203125-27.4L 185.90203125-27.4Q 185.68203125-27.4  185.47203125-26.8Q 185.25203125-26.19  185.05203125-25.16Q 184.84203125-24.12  184.68203125-22.75Q 184.51203125-21.39  184.37203125-19.85Q 184.24203125-18.32  184.16203125-16.72Q 184.08203125-15.12  184.06203125-13.63L 184.06203125-13.63Q 184.53203125-15.35  184.93203125-17.16Q 185.33203125-18.96  185.64203125-20.66Q 185.96203125-22.36  186.13203125-23.88Q 186.31203125-25.39  186.31203125-26.52Z" data-box="32.95 132.00 199.95 36.00 " transform="matrix(1.020118987420039 0 0 1.020118987420039 38.14763148556605 166.68404557228132)" />
  <g data-refid="icon" fill="#000000" data-box="241.89 125.25 25.16 49.50 " transform="matrix(0.7462573916192027 0 0 0.7462573916192027 217.375129225719 112.15542231218579)">
    <svg xmlns="http://www.w3.org/2000/svg" xmlns:xlink="http://www.w3.org/1999/xlink" version="1.1" x="0px" y="0px" viewBox="0 0 100 100" enable-background="new 0 0 100 100" xml:space="preserve" width="100" height="100" id="FLDSRC_ICON">
      <g>
        <path d="M65.745,35.618l0.219-7.228l0.329-10.843H33.13l0.548,18.071h-0.827v13.898l1.616-0.003c3.998,0,9.052,0.969,10.427,5.585   c1.11,3.727,0.51,6.052-0.25,8.997c-0.453,1.756-0.967,3.748-1.178,6.299c-0.435,5.249,0.536,9.719,2.596,11.957   c0.92,0.999,2.046,1.527,3.256,1.527h0.787c1.21,0,2.336-0.528,3.256-1.527c2.06-2.238,3.031-6.708,2.596-11.957   c-0.211-2.551-0.725-4.542-1.178-6.299c-0.76-2.945-1.36-5.271-0.25-8.997c1.375-4.617,6.43-5.585,10.427-5.585l1.616,0.003V35.618   H65.745z M64.571,44.397h-29.72v-6.779h29.72V44.397z M36.618,29.735c0.204,0.07,0.411,0.135,0.62,0.193l0.203,2.683l0.194-2.578   c0.196,0.047,0.396,0.086,0.596,0.123l-0.412,5.461h-0.605h-0.151L36.618,29.735z M39.392,30.315   c0.201,0.017,0.404,0.027,0.608,0.034l0.171,2.264l0.17-2.251c0.053,0,0.105,0.005,0.159,0.005h0c0.146,0,0.298-0.012,0.447-0.017   l-0.398,5.268h-0.605h-0.151L39.392,30.315z M42.118,30.263c0.167-0.019,0.331-0.031,0.499-0.056   c0.033-0.005,0.067-0.017,0.101-0.022l0.183,2.426l0.189-2.51c0.205-0.045,0.409-0.083,0.616-0.145l-0.428,5.661h-0.605h-0.151   L42.118,30.263z M44.797,29.571c0.191-0.077,0.39-0.165,0.586-0.25l0.249,3.29l0.265-3.512c0.204-0.093,0.417-0.193,0.627-0.292   l-0.514,6.81h-0.605h-0.151L44.797,29.571z M47.437,28.382c0.194-0.091,0.386-0.181,0.584-0.272l0.34,4.502l0.364-4.816   c0.206-0.091,0.414-0.179,0.625-0.268l-0.611,8.089h-0.605h-0.151L47.437,28.382z M50.081,27.23   c0.192-0.074,0.392-0.142,0.589-0.212l0.423,5.594l0.444-5.885c0.203-0.063,0.41-0.121,0.619-0.178l-0.685,9.068h-0.605h-0.151   L50.081,27.23z M52.749,26.397c0.195-0.046,0.396-0.086,0.596-0.126l0.479,6.341l0.491-6.504c0.203-0.029,0.404-0.059,0.611-0.08   l-0.725,9.59h-0.605h-0.151L52.749,26.397z M55.448,25.987c0.198-0.014,0.4-0.02,0.603-0.026l0.502,6.65l0.502-6.659   c0.201,0.006,0.402,0.011,0.604,0.024l-0.728,9.642h-0.605h-0.151L55.448,25.987z M58.181,26.022   c0.203,0.02,0.406,0.042,0.61,0.069l0.493,6.522l0.481-6.366c0.198,0.038,0.396,0.076,0.596,0.121l-0.699,9.25h-0.605h-0.151   L58.181,26.022z M60.949,26.512c0.205,0.053,0.41,0.103,0.617,0.163l0.448,5.937l0.428-5.663c0.195,0.065,0.393,0.14,0.589,0.211   l-0.639,8.458h-0.605h-0.151L60.949,26.512z M64.571,47.516c-6.398,0.095-10.639,2.576-11.96,7.011   c-1.269,4.26-0.574,6.951,0.23,10.068c0.455,1.761,0.925,3.583,1.122,5.964c0.378,4.561-0.436,8.658-2.074,10.437   c-0.546,0.593-1.13,0.882-1.785,0.882h-0.787c-0.654,0-1.238-0.289-1.785-0.882c-1.638-1.779-2.452-5.876-2.074-10.437   c0.197-2.381,0.667-4.203,1.122-5.964c0.804-3.117,1.499-5.808,0.23-10.068c-1.321-4.435-5.562-6.917-11.96-7.011v-2.119h29.72   V47.516z" />
        <path d="M49.711,78.15c1.219,0,2.21-0.992,2.21-2.211c0-1.219-0.992-2.21-2.21-2.21s-2.21,0.991-2.21,2.21   C47.501,77.158,48.493,78.15,49.711,78.15z M49.711,74.729c0.667,0,1.21,0.543,1.21,1.21c0,0.667-0.543,1.211-1.21,1.211   s-1.21-0.543-1.21-1.211C48.501,75.272,49.044,74.729,49.711,74.729z" />
      </g>
    </svg>
  </g>
</svg>
